<svg width="486.873" height="493.118" viewBox="0 0 365.155 369.839" version="1.1" id="svg23" xmlns:xlink="http://www.w3.org/1999/xlink" xmlns="http://www.w3.org/2000/svg"><style id="style1">path{fill:#202020;stroke:#202020}@media (prefers-color-scheme:dark){path{stroke:#dfdfdf;fill:#dfdfdf}}*{stroke-linejoin:round;stroke-linecap:butt}</style><g id="figure_1"><g id="patch_1"/><g id="axes_1"><g id="text_1"><g transform="matrix(1.7 0 0 -1.7 0 328.693)" id="g5"><defs id="defs3"><path id="Cabin-Regular-48" d="M512 0v4480h608V2630h2278v1850h608V0h-608v2054H1120V0H512z" transform="scale(.01563)"/><path id="Cabin-Regular-47" d="M2445-90q-621 0-1119 286-497 287-787 812-289 525-289 1238 0 708 299 1229 299 522 822 808 523 287 1195 287 362 0 690-76 328-75 571-180l-57-532q-263 103-558 170-294 67-626 67-573 0-943-239-369-238-549-641-179-403-179-899 0-512 182-914 183-401 560-633 378-232 961-232 144 0 358 25 214 26 390 96v1114h-704v550h1312V250Q3712 106 3321 8q-390-98-876-98z" transform="scale(.01563)"/><path id="Cabin-Regular-51" d="m2822 1293 346 352L4576 262 4230-90 2822 1293zM2464-90q-640 0-1139 286-499 287-784 810-285 524-285 1234t285 1233q285 524 784 810 499 287 1139 287t1139-287q499-286 784-810 285-523 285-1233t-285-1234q-285-523-784-810Q3104-90 2464-90zm0 589q515 0 860 232 346 232 520 627 175 396 175 882t-175 881q-174 396-520 628-345 232-860 232t-861-232q-345-232-520-628-174-395-174-881t174-882q175-395 520-627 346-232 861-232z" transform="scale(.01563)"/></defs><use xlink:href="#Cabin-Regular-48" id="use3"/><use xlink:href="#Cabin-Regular-47" x="70.6" id="use4"/><use xlink:href="#Cabin-Regular-51" x="137.8" id="use5"/></g></g><g id="line2d_1"><path d="m60.515 139.986-.085-1.711-.255-1.695-.423-1.662-.585-1.611-.743-1.547-.893-1.466-1.034-1.371-1.166-1.263-1.285-1.143-1.393-1.01-1.487-.87-1.565-.718-1.63-.562-1.677-.399-1.709-.232-1.723-.064-1.722.106-1.702.275-1.667.44-1.615.601-1.547.757-1.465.906-1.367 1.044-1.256 1.174-1.134 1.291-1 1.396-.856 1.488-.704 1.564-.546 1.626-.38 1.671-.213 1.7-.043 1.714.128 1.708.297 1.688.464 1.65.625 1.598.781 1.528.93 1.443 1.068 1.346 1.196 1.234 1.314 1.11 1.417.976 1.508.832 1.583.68 1.643.522 1.687.358 1.714.19 1.724.021 1.718-.148 1.696-.316 1.655-.481 1.6-.641 1.527-.795 1.442-.941 1.34-1.078 1.228-1.204 1.1-1.319.966-1.42.819-1.508.665-1.581.504-1.639.34-1.68.17-1.705.02-.857" clip-path="url(#pdef3dc7593)" style="fill:none;stroke-width:24" id="path5"/></g><g id="line2d_2"><path d="m60.515 70.686-.085-1.711-.255-1.695-.423-1.662-.585-1.611-.743-1.547-.893-1.466-1.034-1.371-1.166-1.263-1.285-1.143-1.393-1.01-1.487-.87-1.565-.718-1.63-.562-1.677-.399-1.709-.232-1.723-.064-1.722.106-1.702.275-1.667.44-1.615.601-1.547.757-1.465.906-1.367 1.044-1.256 1.174-1.134 1.291-1 1.396-.856 1.488-.704 1.564-.546 1.626-.38 1.671-.213 1.7-.043 1.714.128 1.708.297 1.688.464 1.65.625 1.598.781 1.528.93 1.443 1.068 1.346 1.196 1.234 1.314 1.11 1.417.976 1.508.832 1.583.68 1.643.522 1.687.358 1.714.19 1.724.021 1.718-.148 1.696-.316 1.655-.481 1.6-.641 1.527-.795 1.442-.941 1.34-1.078 1.228-1.204 1.1-1.319.966-1.42.819-1.508.665-1.581.504-1.639.34-1.68.17-1.705.02-.857" clip-path="url(#pdef3dc7593)" style="fill:none;stroke-width:16" id="path6"/></g><g id="line2d_3"><path d="m200.015 174.636-.085-1.711-.255-1.695-.423-1.662-.585-1.611-.743-1.547-.893-1.466-1.034-1.371-1.166-1.263-1.285-1.143-1.393-1.01-1.487-.87-1.565-.718-1.63-.562-1.677-.399-1.709-.232-1.723-.064-1.722.106-1.702.275-1.667.44-1.615.601-1.547.757-1.465.906-1.367 1.044-1.256 1.174-1.134 1.291-1 1.396-.856 1.488-.704 1.564-.546 1.626-.38 1.671-.213 1.7-.043 1.714.128 1.708.297 1.688.464 1.65.625 1.598.781 1.528.93 1.443 1.068 1.346 1.196 1.234 1.314 1.11 1.417.976 1.508.832 1.583.68 1.643.522 1.687.358 1.714.19 1.724.021 1.718-.148 1.696-.316 1.655-.481 1.6-.641 1.527-.795 1.442-.941 1.34-1.078 1.228-1.204 1.1-1.319.966-1.42.819-1.508.665-1.581.504-1.639.34-1.68.17-1.705.02-.857" clip-path="url(#pdef3dc7593)" style="fill:none;stroke-width:8" id="path7"/></g><g id="line2d_4"><path d="m200.015 105.336-.085-1.711-.255-1.695-.423-1.662-.585-1.611-.743-1.547-.893-1.466-1.034-1.371-1.166-1.263-1.285-1.143-1.393-1.01-1.487-.87-1.565-.718-1.63-.562-1.677-.399-1.709-.232-1.723-.064-1.722.106-1.702.275-1.667.44-1.615.601-1.547.757-1.465.906-1.367 1.044-1.256 1.174-1.134 1.291-1 1.396-.856 1.488-.704 1.564-.546 1.626-.38 1.671-.213 1.7-.043 1.714.128 1.708.297 1.688.464 1.65.625 1.598.781 1.528.93 1.443 1.068 1.346 1.196 1.234 1.314 1.11 1.417.976 1.508.832 1.583.68 1.643.522 1.687.358 1.714.19 1.724.021 1.718-.148 1.696-.316 1.655-.481 1.6-.641 1.527-.795 1.442-.941 1.34-1.078 1.228-1.204 1.1-1.319.966-1.42.819-1.508.665-1.581.504-1.639.34-1.68.17-1.705.02-.857" clip-path="url(#pdef3dc7593)" style="fill:none;stroke-width:4" id="path8"/></g><g id="line2d_5"><path d="m200.015 36.036-.085-1.711-.255-1.695-.423-1.662-.585-1.611-.743-1.547-.893-1.466-1.034-1.371-1.166-1.263-1.285-1.143-1.393-1.01-1.487-.87-1.565-.718-1.63-.562-1.677-.399-1.709-.232-1.723-.064-1.722.106-1.702.275-1.667.44-1.615.601-1.547.757-1.465.906-1.367 1.044-1.256 1.174-1.134 1.291-1 1.396-.856 1.488-.704 1.564-.546 1.626-.38 1.671-.213 1.7-.043 1.714.128 1.708.297 1.688.464 1.65.625 1.598.781 1.528.93 1.443 1.068 1.346 1.196 1.234 1.314 1.11 1.417.976 1.508.832 1.583.68 1.643.522 1.687.358 1.714.19 1.724.021 1.718-.148 1.696-.316 1.655-.481 1.6-.641 1.527-.795 1.442-.941 1.34-1.078 1.228-1.204 1.1-1.319.966-1.42.819-1.508.665-1.581.504-1.639.34-1.68.17-1.705.02-.857" clip-path="url(#pdef3dc7593)" style="fill:none;stroke-width:16" id="path9"/></g><g id="line2d_6"><path d="m339.515 139.986-.085-1.711-.255-1.695-.423-1.662-.585-1.611-.743-1.547-.893-1.466-1.034-1.371-1.166-1.263-1.285-1.143-1.393-1.01-1.487-.87-1.565-.718-1.63-.562-1.677-.399-1.709-.232-1.723-.064-1.722.106-1.702.275-1.667.44-1.615.601-1.547.757-1.465.906-1.367 1.044-1.256 1.174-1.134 1.291-1 1.396-.856 1.488-.704 1.564-.546 1.626-.38 1.671-.213 1.7-.043 1.714.128 1.708.297 1.688.464 1.65.625 1.598.781 1.528.93 1.443 1.068 1.346 1.196 1.234 1.314 1.11 1.417.976 1.508.832 1.583.68 1.643.522 1.687.358 1.714.19 1.724.021 1.718-.148 1.696-.316 1.655-.481 1.6-.641 1.527-.795 1.442-.941 1.34-1.078 1.228-1.204 1.1-1.319.966-1.42.819-1.508.665-1.581.504-1.639.34-1.68.17-1.705.02-.857" clip-path="url(#pdef3dc7593)" style="fill:none;stroke-width:8" id="path10"/></g><g id="line2d_7"><path d="m339.515 70.686-.085-1.711-.255-1.695-.423-1.662-.585-1.611-.743-1.547-.893-1.466-1.034-1.371-1.166-1.263-1.285-1.143-1.393-1.01-1.487-.87-1.565-.718-1.63-.562-1.677-.399-1.709-.232-1.723-.064-1.722.106-1.702.275-1.667.44-1.615.601-1.547.757-1.465.906-1.367 1.044-1.256 1.174-1.134 1.291-1 1.396-.856 1.488-.704 1.564-.546 1.626-.38 1.671-.213 1.7-.043 1.714.128 1.708.297 1.688.464 1.65.625 1.598.781 1.528.93 1.443 1.068 1.346 1.196 1.234 1.314 1.11 1.417.976 1.508.832 1.583.68 1.643.522 1.687.358 1.714.19 1.724.021 1.718-.148 1.696-.316 1.655-.481 1.6-.641 1.527-.795 1.442-.941 1.34-1.078 1.228-1.204 1.1-1.319.966-1.42.819-1.508.665-1.581.504-1.639.34-1.68.17-1.705.02-.857" clip-path="url(#pdef3dc7593)" style="fill:none;stroke-width:16" id="path11"/></g><g id="line2d_8"><path d="m63.242 144.995 99.17 24.632" clip-path="url(#pdef3dc7593)" style="fill:none;stroke-width:9.6" id="path12"/></g><g id="line2d_9"><path d="m59.994 135.784 105.666-26.246" clip-path="url(#pdef3dc7593)" style="fill:none" id="path13"/></g><g id="line2d_10"><path d="M58.367 128.593 167.288 47.43" clip-path="url(#pdef3dc7593)" style="fill:none;stroke-width:4.8" id="path14"/></g><g id="line2d_11"><path d="m57.027 81.081 111.6 83.16" clip-path="url(#pdef3dc7593)" style="fill:none" id="path15"/></g><g id="line2d_12"><path d="m61.618 75.291 102.418 25.44" clip-path="url(#pdef3dc7593)" style="fill:none;stroke-width:4.8" id="path16"/></g><g id="line2d_13"><path d="m63.242 65.677 99.17-24.632" clip-path="url(#pdef3dc7593)" style="fill:none;stroke-width:9.6" id="path17"/></g><g id="line2d_14"><path d="m199.494 170.434 105.666-26.246" clip-path="url(#pdef3dc7593)" style="fill:none" id="path18"/></g><g id="line2d_15"><path d="M197.867 163.243 306.788 82.08" clip-path="url(#pdef3dc7593)" style="fill:none;stroke-width:4.8" id="path19"/></g><g id="line2d_16"><path d="m201.118 109.941 102.418 25.44" clip-path="url(#pdef3dc7593)" style="fill:none;stroke-width:4.8" id="path20"/></g><g id="line2d_17"><path d="M199.494 101.134 305.16 74.888" clip-path="url(#pdef3dc7593)" style="fill:none" id="path21"/></g><g id="line2d_18"><path d="m199.206 48.427 106.243 79.168" clip-path="url(#pdef3dc7593)" style="fill:none;stroke-width:9.6" id="path22"/></g><g id="line2d_19"><path d="m201.118 40.641 102.418 25.44" clip-path="url(#pdef3dc7593)" style="fill:none;stroke-width:4.8" id="path23"/></g></g></g><defs id="defs23"><clipPath id="pdef3dc7593"><path id="rect23" d="M1.227 0h362.7v210.672H1.227z"/></clipPath></defs></svg>