<svg xmlns:xlink="http://www.w3.org/1999/xlink" width="595.2" height="481.577" viewBox="0 0 446.4 361.183" xmlns="http://www.w3.org/2000/svg"><style id="style1">path{fill:#202020;stroke:#202020}@media (prefers-color-scheme:dark){path{stroke:#dfdfdf;fill:#dfdfdf}}*{stroke-linejoin:round;stroke-linecap:butt}</style><g id="figure_1"><g id="axes_1"><g transform="matrix(1.6 0 0 -1.6 51.362 322.457)" id="text_1"><defs><path id="Cabin-Regular-48" d="M512 0v4480h608V2630h2278v1850h608V0h-608v2054H1120V0H512z" transform="scale(.01563)"/><path id="Cabin-Regular-47" d="M2445-90q-621 0-1119 286-497 287-787 812-289 525-289 1238 0 708 299 1229 299 522 822 808 523 287 1195 287 362 0 690-76 328-75 571-180l-57-532q-263 103-558 170-294 67-626 67-573 0-943-239-369-238-549-641-179-403-179-899 0-512 182-914 183-401 560-633 378-232 961-232 144 0 358 25 214 26 390 96v1114h-704v550h1312V250Q3712 106 3321 8q-390-98-876-98z" transform="scale(.01563)"/><path id="Cabin-Regular-51" d="m2822 1293 346 352L4576 262 4230-90 2822 1293zM2464-90q-640 0-1139 286-499 287-784 810-285 524-285 1234t285 1233q285 524 784 810 499 287 1139 287t1139-287q499-286 784-810 285-523 285-1233t-285-1234q-285-523-784-810Q3104-90 2464-90zm0 589q515 0 860 232 346 232 520 627 175 396 175 882t-175 881q-174 396-520 628-345 232-860 232t-861-232q-345-232-520-628-174-395-174-881t174-882q175-395 520-627 346-232 861-232z" transform="scale(.01563)"/></defs><use xlink:href="#Cabin-Regular-48"/><use xlink:href="#Cabin-Regular-47" x="70.6"/><use xlink:href="#Cabin-Regular-51" x="137.8"/></g><path d="M16.533 162.73a10.955 10.955 0 1 0 0-21.91 10.955 10.955 0 0 0 0 21.91z" clip-path="url(#p2a4c277399)" style="fill:none;stroke-width:7.5" id="PathCollection_1"/><path d="M16.533 107.974a10.955 10.955 0 1 0 0-21.91 10.955 10.955 0 0 0 0 21.91z" clip-path="url(#p2a4c277399)" style="fill:none;stroke-width:5" id="PathCollection_2"/><path d="M16.533 53.219a10.955 10.955 0 1 0 0-21.91 10.955 10.955 0 0 0 0 21.91z" clip-path="url(#p2a4c277399)" style="fill:none;stroke-width:2.5" id="PathCollection_3"/><path d="M119.867 162.73a10.955 10.955 0 1 0 0-21.91 10.955 10.955 0 0 0 0 21.91z" clip-path="url(#p2a4c277399)" style="fill:none;stroke-width:5" id="PathCollection_4"/><path d="M119.867 107.974a10.955 10.955 0 1 0 0-21.91 10.955 10.955 0 0 0 0 21.91z" clip-path="url(#p2a4c277399)" style="fill:none;stroke-width:7.5" id="PathCollection_5"/><path d="M223.2 190.108a10.955 10.955 0 1 0 0-21.91 10.955 10.955 0 0 0 0 21.91z" clip-path="url(#p2a4c277399)" style="fill:none;stroke-width:5" id="PathCollection_6"/><path d="M223.2 135.352a10.955 10.955 0 1 0 0-21.91 10.955 10.955 0 0 0 0 21.91z" clip-path="url(#p2a4c277399)" style="fill:none;stroke-width:7.5" id="PathCollection_7"/><path d="M223.2 25.841a10.955 10.955 0 1 0 0-21.91 10.955 10.955 0 0 0 0 21.91z" clip-path="url(#p2a4c277399)" style="fill:none;stroke-width:5" id="PathCollection_8"/><path d="M326.533 162.73a10.955 10.955 0 1 0 0-21.91 10.955 10.955 0 0 0 0 21.91z" clip-path="url(#p2a4c277399)" style="fill:none;stroke-width:2.5" id="PathCollection_9"/><path d="M326.533 53.219a10.955 10.955 0 1 0 0-21.91 10.955 10.955 0 0 0 0 21.91z" clip-path="url(#p2a4c277399)" style="fill:none;stroke-width:8.75" id="PathCollection_10"/><path d="M429.867 162.73a10.955 10.955 0 1 0 0-21.91 10.955 10.955 0 0 0 0 21.91z" clip-path="url(#p2a4c277399)" style="fill:none;stroke-width:7.5" id="PathCollection_11"/><path d="M429.867 107.974a10.955 10.955 0 1 0 0-21.91 10.955 10.955 0 0 0 0 21.91z" clip-path="url(#p2a4c277399)" style="fill:none;stroke-width:5" id="PathCollection_12"/><path d="M429.867 53.219a10.955 10.955 0 1 0 0-21.91 10.955 10.955 0 0 0 0 21.91z" clip-path="url(#p2a4c277399)" style="fill:none;stroke-width:2.5" id="PathCollection_13"/><path d="M29.622 151.776h77.156" clip-path="url(#p2a4c277399)" style="fill:none;stroke-width:6;stroke-linecap:square" id="line2d_1"/><path d="M29.622 97.02h77.156" clip-path="url(#p2a4c277399)" style="fill:none;stroke-width:6;stroke-linecap:square" id="line2d_2"/><path d="m24.307 50.503 87.786 93.034" clip-path="url(#p2a4c277399)" style="fill:none;stroke-linecap:square" id="line2d_3"/><path d="m132.514 148.425 78.04-20.676" clip-path="url(#p2a4c277399)" style="fill:none;stroke-width:6;stroke-linecap:square" id="line2d_4"/><path d="M126.687 142.74 216.38 23.922" clip-path="url(#p2a4c277399)" style="fill:none;stroke-linecap:square" id="line2d_5"/><path d="m129.55 104.716 83.967 66.741" clip-path="url(#p2a4c277399)" style="fill:none;stroke-width:4;stroke-linecap:square" id="line2d_6"/><path d="m132.18 100.283 78.706 20.852" clip-path="url(#p2a4c277399)" style="fill:none;stroke-width:5;stroke-linecap:square" id="line2d_7"/><path d="m128.743 89.965 85.581-68.023" clip-path="url(#p2a4c277399)" style="fill:none;stroke-linecap:square" id="line2d_8"/><path d="m230.227 169.845 89.28-118.272" clip-path="url(#p2a4c277399)" style="fill:none;stroke-width:2;stroke-linecap:square" id="line2d_9"/><path d="m234.183 127.308 81.367 21.558" clip-path="url(#p2a4c277399)" style="fill:none;stroke-linecap:square" id="line2d_10"/><path d="m233.152 116.488 83.43-66.314" clip-path="url(#p2a4c277399)" style="fill:none;stroke-width:5;stroke-linecap:square" id="line2d_11"/><path d="m230.227 24.195 89.28 118.272" clip-path="url(#p2a4c277399)" style="fill:none;stroke-width:2;stroke-linecap:square" id="line2d_12"/><path d="m234.516 17.885 80.702 21.381" clip-path="url(#p2a4c277399)" style="fill:none;stroke-width:2;stroke-linecap:square" id="line2d_13"/><path d="M337.9 151.776h80.6" clip-path="url(#p2a4c277399)" style="fill:none;stroke-linecap:square" id="line2d_14"/><path d="m336.867 146.3 82.666-43.804" clip-path="url(#p2a4c277399)" style="fill:none;stroke-width:2;stroke-linecap:square" id="line2d_15"/><path d="m335.25 51.502 85.9 91.036" clip-path="url(#p2a4c277399)" style="fill:none;stroke-width:5;stroke-linecap:square" id="line2d_16"/><path d="m336.563 47.579 83.274 44.126" clip-path="url(#p2a4c277399)" style="fill:none;stroke-linecap:square" id="line2d_17"/><path d="M338.589 42.264h79.222" clip-path="url(#p2a4c277399)" style="fill:none;stroke-width:3;stroke-linecap:square" id="line2d_18"/></g></g><defs><clipPath id="p2a4c277399"><path d="M0 0h446.4v194.04H0z"/></clipPath></defs></svg>