<?xml version="1.0" encoding="UTF-8" standalone="no"?>
<svg
   width="365.15469pt"
   height="369.83865pt"
   viewBox="0 0 365.15469 369.83866"
   version="1.1"
   id="svg19"
   xmlns:xlink="http://www.w3.org/1999/xlink"
   xmlns="http://www.w3.org/2000/svg"
   xmlns:svg="http://www.w3.org/2000/svg"
   xmlns:rdf="http://www.w3.org/1999/02/22-rdf-syntax-ns#"
   xmlns:cc="http://creativecommons.org/ns#"
   xmlns:dc="http://purl.org/dc/elements/1.1/">
  <style
     id="style1">
    path {
      fill: #202020;
      stroke: #202020;
    }
    @media (prefers-color-scheme: dark) {
      path {
        stroke: #dfdfdf;
        fill: #dfdfdf;
      }
    }
  </style>
  <metadata
     id="metadata1">
    <rdf:RDF>
      <cc:Work>
        <dc:type
           rdf:resource="http://purl.org/dc/dcmitype/StillImage" />
        <dc:date>2023-11-26T19:23:23.939326</dc:date>
        <dc:format>image/svg+xml</dc:format>
        <dc:creator>
          <cc:Agent>
            <dc:title>Matplotlib v3.8.0, https://matplotlib.org/</dc:title>
          </cc:Agent>
        </dc:creator>
      </cc:Work>
    </rdf:RDF>
  </metadata>
  <defs
     id="defs2">
    <style
       type="text/css"
       id="style2">*{stroke-linejoin: round; stroke-linecap: butt}</style>
  </defs>
  <g
     id="figure_1">
    <g
       id="patch_1" />
    <g
       id="axes_1">
      <g
         id="text_1">
        <!-- HGQ -->
        <g
           transform="matrix(1.7,0,0,-1.7,0,328.69334)"
           id="g5">
          <defs
             id="defs3">
            <path
               id="Cabin-Regular-48"
               d="m 512,0 v 4480 h 608 V 2630 h 2278 v 1850 h 608 V 0 H 3398 V 2054 H 1120 V 0 Z"
               transform="scale(0.015625)" />
            <path
               id="Cabin-Regular-47"
               d="m 2445,-90 q -621,0 -1119,286 -497,287 -787,812 -289,525 -289,1238 0,708 299,1229 299,522 822,808 523,287 1195,287 362,0 690,-76 328,-75 571,-180 l -57,-532 q -263,103 -558,170 -294,67 -626,67 -573,0 -943,-239 -369,-238 -549,-641 -179,-403 -179,-899 0,-512 182,-914 183,-401 560,-633 378,-232 961,-232 144,0 358,25 214,26 390,96 v 1114 h -704 v 550 H 3974 V 250 Q 3712,106 3321,8 2931,-90 2445,-90 Z"
               transform="scale(0.015625)" />
            <path
               id="Cabin-Regular-51"
               d="M 2822,1293 3168,1645 4576,262 4230,-90 Z M 2464,-90 q -640,0 -1139,286 -499,287 -784,810 -285,524 -285,1234 0,710 285,1233 285,524 784,810 499,287 1139,287 640,0 1139,-287 499,-286 784,-810 285,-523 285,-1233 0,-710 -285,-1234 Q 4102,483 3603,196 3104,-90 2464,-90 Z m 0,589 q 515,0 860,232 346,232 520,627 175,396 175,882 0,486 -175,881 -174,396 -520,628 -345,232 -860,232 -515,0 -861,-232 -345,-232 -520,-628 -174,-395 -174,-881 0,-486 174,-882 175,-395 520,-627 346,-232 861,-232 z"
               transform="scale(0.015625)" />
          </defs>
          <use
             xlink:href="#Cabin-Regular-48"
             id="use3" />
          <use
             xlink:href="#Cabin-Regular-47"
             x="70.600006"
             id="use4" />
          <use
             xlink:href="#Cabin-Regular-51"
             x="137.80002"
             id="use5" />
        </g>
      </g>
      <g
         id="line2d_1">
        <path
           d="m 60.514844,139.986 -0.08529,-1.71148 -0.255044,-1.69473 -0.4223,-1.66141 -0.585425,-1.61183 -0.742822,-1.54649 -0.892954,-1.46602 -1.03435,-1.37121 -1.165626,-1.26298 -1.2855,-1.1424 -1.392798,-1.01064 -1.486472,-0.86899 -1.565602,-0.71885 -1.629419,-0.56166 -1.677293,-0.399 -1.708761,-0.23242 -1.723511,-0.0636 -1.721402,0.10591 -1.702451,0.27434 -1.666848,0.44009 -1.614937,0.60154 -1.547228,0.7571 -1.464383,0.90526 -1.367212,1.04455 -1.256667,1.17364 -1.133827,1.29124 -0.999897,1.39621 -0.856184,1.48751 -0.704096,1.56428 -0.545119,1.62573 -0.38081,1.67128 -0.212775,1.70048 -0.04266,1.71304 0.127874,1.70886 0.297156,1.68794 0.463531,1.65053 0.625373,1.59695 0.781095,1.52777 0.929178,1.44363 1.068169,1.34536 1.196711,1.23395 1.313547,1.11046 1.417532,0.9761 1.50765,0.8322 1.58302,0.68015 1.642902,0.52145 1.686714,0.35766 1.714024,0.19035 1.724566,0.0212 1.718239,-0.14817 1.695101,-0.31609 1.655381,-0.48092 1.599468,-0.64105 1.527906,-0.79489 1.441399,-0.94096 1.34079,-1.07784 1.227064,-1.20416 1.101335,-1.31871 0.964833,-1.42035 0.81889,-1.5081 0.664937,-1.5811 0.50448,-1.63863 0.339087,-1.68013 0.170377,-1.70518 0.02134,-0.85679 v 0"
           clip-path="url(#pc878f5570a)"
           style="fill:none;stroke-width:24"
           id="path5" />
      </g>
      <g
         id="line2d_2">
        <path
           d="m 60.514844,70.686 -0.08529,-1.711475 -0.255044,-1.694732 -0.4223,-1.66141 -0.585425,-1.611835 -0.742822,-1.546492 -0.892954,-1.46602 -1.03435,-1.371207 -1.165626,-1.26298 -1.2855,-1.142397 -1.392798,-1.010638 -1.486472,-0.868993 -1.565602,-0.718847 -1.629419,-0.561668 -1.677293,-0.398994 -1.708761,-0.232419 -1.723511,-0.06357 -1.721402,0.105904 -1.702451,0.27434 -1.666848,0.440092 -1.614937,0.601539 -1.547228,0.757101 -1.464383,0.905257 -1.367212,1.044556 -1.256667,1.173639 -1.133827,1.291238 -0.999897,1.396206 -0.856184,1.487516 -0.704096,1.564274 -0.545119,1.625729 -0.38081,1.67128 -0.212775,1.700481 -0.04266,1.713047 0.127874,1.708855 0.297156,1.687946 0.463531,1.650524 0.625373,1.596955 0.781095,1.527764 0.929178,1.443628 1.068169,1.345368 1.196711,1.233948 1.313547,1.110457 1.417532,0.976101 1.50765,0.832197 1.58302,0.680152 1.642902,0.521454 1.686714,0.357653 1.714024,0.190355 1.724566,0.02119 1.718239,-0.148175 1.695101,-0.316093 1.655381,-0.48092 1.599468,-0.641042 1.527906,-0.794892 1.441399,-0.940967 1.34079,-1.077836 1.227064,-1.204162 1.101335,-1.318707 0.964833,-1.420351 0.81889,-1.508102 0.664937,-1.581098 0.50448,-1.638628 0.339087,-1.680127 0.170377,-1.705189 0.02134,-0.856786 v 0"
           clip-path="url(#pc878f5570a)"
           style="fill:none;stroke-width:16"
           id="path6" />
      </g>
      <g
         id="line2d_3">
        <path
           d="m 200.01484,174.636 -0.0853,-1.71148 -0.25504,-1.69473 -0.4223,-1.66141 -0.58543,-1.61183 -0.74282,-1.54649 -0.89295,-1.46602 -1.03435,-1.37121 -1.16563,-1.26298 -1.2855,-1.1424 -1.3928,-1.01064 -1.48647,-0.86899 -1.5656,-0.71885 -1.62942,-0.56166 -1.67729,-0.399 -1.70877,-0.23242 -1.72351,-0.0636 -1.7214,0.10591 -1.70245,0.27434 -1.66685,0.44009 -1.61493,0.60154 -1.54723,0.7571 -1.46439,0.90526 -1.36721,1.04455 -1.25666,1.17364 -1.13383,1.29124 -0.9999,1.39621 -0.85618,1.48751 -0.7041,1.56428 -0.54512,1.62573 -0.38081,1.67128 -0.21277,1.70048 -0.0427,1.71304 0.12787,1.70886 0.29716,1.68794 0.46353,1.65053 0.62537,1.59695 0.7811,1.52777 0.92918,1.44363 1.06816,1.34536 1.19672,1.23395 1.31354,1.11046 1.41753,0.9761 1.50765,0.8322 1.58302,0.68015 1.64291,0.52145 1.68671,0.35766 1.71402,0.19035 1.72457,0.0212 1.71824,-0.14817 1.6951,-0.31609 1.65538,-0.48092 1.59947,-0.64105 1.52791,-0.79489 1.44139,-0.94096 1.34079,-1.07784 1.22707,-1.20416 1.10133,-1.31871 0.96484,-1.42035 0.81889,-1.5081 0.66493,-1.5811 0.50448,-1.63863 0.33909,-1.68012 0.17038,-1.70519 0.0213,-0.85679 v 0"
           clip-path="url(#pc878f5570a)"
           style="fill:none;stroke-width:8"
           id="path7" />
      </g>
      <g
         id="line2d_4">
        <path
           d="m 200.01484,105.336 -0.0853,-1.71147 -0.25504,-1.69474 -0.4223,-1.66141 -0.58543,-1.611832 -0.74282,-1.546492 -0.89295,-1.46602 -1.03435,-1.371207 -1.16563,-1.26298 -1.2855,-1.142397 -1.3928,-1.010638 -1.48647,-0.868993 -1.5656,-0.718847 -1.62942,-0.561668 -1.67729,-0.398994 -1.70877,-0.232419 -1.72351,-0.06357 -1.7214,0.105904 -1.70245,0.27434 -1.66685,0.440092 -1.61493,0.601539 -1.54723,0.757101 -1.46439,0.905257 -1.36721,1.044556 -1.25666,1.173639 -1.13383,1.291238 -0.9999,1.396206 -0.85618,1.487516 -0.7041,1.564274 -0.54512,1.625735 -0.38081,1.67128 -0.21277,1.70048 -0.0427,1.71304 0.12787,1.70886 0.29716,1.68795 0.46353,1.65052 0.62537,1.59695 0.7811,1.52777 0.92918,1.44363 1.06816,1.34536 1.19672,1.23395 1.31354,1.11046 1.41753,0.9761 1.50765,0.8322 1.58302,0.68015 1.64291,0.52145 1.68671,0.35766 1.71402,0.19035 1.72457,0.0212 1.71824,-0.14817 1.6951,-0.31609 1.65538,-0.48092 1.59947,-0.64105 1.52791,-0.79489 1.44139,-0.94096 1.34079,-1.07784 1.22707,-1.20416 1.10133,-1.31871 0.96484,-1.42035 0.81889,-1.5081 0.66493,-1.5811 0.50448,-1.63863 0.33909,-1.68012 0.17038,-1.70519 0.0213,-0.85679 v 0"
           clip-path="url(#pc878f5570a)"
           style="fill:none;stroke-width:4"
           id="path8" />
      </g>
      <g
         id="line2d_5">
        <path
           d="m 200.01484,36.036 -0.0853,-1.711475 -0.25504,-1.694732 -0.4223,-1.66141 -0.58543,-1.611835 -0.74282,-1.546492 -0.89295,-1.46602 -1.03435,-1.371207 -1.16563,-1.26298 -1.2855,-1.142397 -1.3928,-1.010638 -1.48647,-0.868993 -1.5656,-0.718847 -1.62942,-0.561668 -1.67729,-0.398994 -1.70877,-0.232419 -1.72351,-0.06357 -1.7214,0.105904 -1.70245,0.27434 -1.66685,0.440092 -1.61493,0.601539 -1.54723,0.757101 -1.46439,0.905257 -1.36721,1.044556 -1.25666,1.173639 -1.13383,1.291238 -0.9999,1.396206 -0.85618,1.487516 -0.7041,1.564274 -0.54512,1.625729 -0.38081,1.67128 -0.21277,1.700481 -0.0427,1.713047 0.12787,1.708855 0.29716,1.687946 0.46353,1.650524 0.62537,1.596955 0.7811,1.527764 0.92918,1.443628 1.06816,1.345368 1.19672,1.233948 1.31354,1.110457 1.41753,0.976101 1.50765,0.832197 1.58302,0.680152 1.64291,0.521454 1.68671,0.357653 1.71402,0.190355 1.72457,0.02119 1.71824,-0.148175 1.6951,-0.316093 1.65538,-0.48092 1.59947,-0.641042 1.52791,-0.794892 1.44139,-0.940967 1.34079,-1.077836 1.22707,-1.204162 1.10133,-1.318707 0.96484,-1.420351 0.81889,-1.508102 0.66493,-1.581098 0.50448,-1.638628 0.33909,-1.680127 0.17038,-1.705189 0.0213,-0.856786 v 0"
           clip-path="url(#pc878f5570a)"
           style="fill:none;stroke-width:16"
           id="path9" />
      </g>
      <g
         id="line2d_6">
        <path
           d="m 339.51484,139.986 -0.0853,-1.71148 -0.25504,-1.69473 -0.4223,-1.66141 -0.58543,-1.61183 -0.74282,-1.54649 -0.89295,-1.46602 -1.03435,-1.37121 -1.16563,-1.26298 -1.2855,-1.1424 -1.3928,-1.01064 -1.48647,-0.86899 -1.5656,-0.71885 -1.62942,-0.56166 -1.67729,-0.399 -1.70876,-0.23242 -1.72352,-0.0636 -1.7214,0.10591 -1.70245,0.27434 -1.66685,0.44009 -1.61493,0.60154 -1.54723,0.7571 -1.46439,0.90526 -1.36721,1.04455 -1.25666,1.17364 -1.13383,1.29124 -0.9999,1.39621 -0.85618,1.48751 -0.7041,1.56428 -0.54512,1.62573 -0.38081,1.67128 -0.21277,1.70048 -0.0427,1.71304 0.12787,1.70886 0.29716,1.68794 0.46353,1.65053 0.62537,1.59695 0.7811,1.52777 0.92918,1.44363 1.06816,1.34536 1.19672,1.23395 1.31354,1.11046 1.41753,0.9761 1.50765,0.8322 1.58302,0.68015 1.64291,0.52145 1.68671,0.35766 1.71403,0.19035 1.72456,0.0212 1.71824,-0.14817 1.6951,-0.31609 1.65538,-0.48092 1.59947,-0.64105 1.52791,-0.79489 1.44139,-0.94096 1.34079,-1.07784 1.22707,-1.20416 1.10133,-1.31871 0.96484,-1.42035 0.81889,-1.5081 0.66493,-1.5811 0.50448,-1.63863 0.33909,-1.68013 0.17038,-1.70518 0.0213,-0.85679 v 0"
           clip-path="url(#pc878f5570a)"
           style="fill:none;stroke-width:8"
           id="path10" />
      </g>
      <g
         id="line2d_7">
        <path
           d="m 339.51484,70.686 -0.0853,-1.711475 -0.25504,-1.694732 -0.4223,-1.66141 -0.58543,-1.611835 -0.74282,-1.546492 -0.89295,-1.46602 -1.03435,-1.371207 -1.16563,-1.26298 -1.2855,-1.142397 -1.3928,-1.010638 -1.48647,-0.868993 -1.5656,-0.718847 -1.62942,-0.561668 -1.67729,-0.398994 -1.70876,-0.232419 -1.72352,-0.06357 -1.7214,0.105904 -1.70245,0.27434 -1.66685,0.440092 -1.61493,0.601539 -1.54723,0.757101 -1.46439,0.905257 -1.36721,1.044556 -1.25666,1.173639 -1.13383,1.291238 -0.9999,1.396206 -0.85618,1.487516 -0.7041,1.564274 -0.54512,1.625729 -0.38081,1.67128 -0.21277,1.700481 -0.0427,1.713047 0.12787,1.708855 0.29716,1.687946 0.46353,1.650524 0.62537,1.596955 0.7811,1.527764 0.92918,1.443628 1.06816,1.345368 1.19672,1.233948 1.31354,1.110457 1.41753,0.976101 1.50765,0.832197 1.58302,0.680152 1.64291,0.521454 1.68671,0.357653 1.71403,0.190355 1.72456,0.02119 1.71824,-0.148175 1.6951,-0.316093 1.65538,-0.48092 1.59947,-0.641042 1.52791,-0.794892 1.44139,-0.940967 1.34079,-1.077836 1.22707,-1.204162 1.10133,-1.318707 0.96484,-1.420351 0.81889,-1.508102 0.66493,-1.581098 0.50448,-1.638628 0.33909,-1.680127 0.17038,-1.705189 0.0213,-0.856786 v 0"
           clip-path="url(#pc878f5570a)"
           style="fill:none;stroke-width:16"
           id="path11" />
      </g>
      <g
         id="line2d_8">
        <path
           d="m 63.242241,144.9947 99.170209,24.6326"
           clip-path="url(#pc878f5570a)"
           style="fill:none;stroke-width:9.6"
           id="path12" />
      </g>
      <g
         id="line2d_9">
        <path
           d="M 58.366544,128.59308 167.28814,47.42892"
           clip-path="url(#pc878f5570a)"
           style="fill:none;stroke-width:4.8"
           id="path13" />
      </g>
      <g
         id="line2d_10">
        <path
           d="M 61.618222,75.291315 164.03646,100.73068"
           clip-path="url(#pc878f5570a)"
           style="fill:none;stroke-width:4.8"
           id="path14" />
      </g>
      <g
         id="line2d_11">
        <path
           d="M 63.242241,65.6773 162.41245,41.0447"
           clip-path="url(#pc878f5570a)"
           style="fill:none;stroke-width:9.6"
           id="path15" />
      </g>
      <g
         id="line2d_12">
        <path
           d="M 197.86654,163.24308 306.78814,82.07892"
           clip-path="url(#pc878f5570a)"
           style="fill:none;stroke-width:4.8"
           id="path16" />
      </g>
      <g
         id="line2d_13">
        <path
           d="m 201.11822,109.94132 102.41825,25.43936"
           clip-path="url(#pc878f5570a)"
           style="fill:none;stroke-width:4.8"
           id="path17" />
      </g>
      <g
         id="line2d_14">
        <path
           d="m 199.20574,48.42684 106.2432,79.16832"
           clip-path="url(#pc878f5570a)"
           style="fill:none;stroke-width:9.6"
           id="path18" />
      </g>
      <g
         id="line2d_15">
        <path
           d="m 201.11822,40.641315 102.41825,25.43937"
           clip-path="url(#pc878f5570a)"
           style="fill:none;stroke-width:4.8"
           id="path19" />
      </g>
    </g>
  </g>
  <defs
     id="defs19">
    <clipPath
       id="pc878f5570a">
      <rect
         x="1.227344"
         y="0"
         width="362.70001"
         height="210.672"
         id="rect19" />
    </clipPath>
  </defs>
</svg>
