<?xml version="1.0" encoding="UTF-8" standalone="no"?>
<svg
   width="446.39999pt"
   height="326.23682pt"
   viewBox="0 0 446.4 326.23682"
   version="1.1"
   id="svg35"
   xmlns:xlink="http://www.w3.org/1999/xlink"
   xmlns="http://www.w3.org/2000/svg"
   xmlns:svg="http://www.w3.org/2000/svg"
   xmlns:rdf="http://www.w3.org/1999/02/22-rdf-syntax-ns#"
   xmlns:cc="http://creativecommons.org/ns#"
   xmlns:dc="http://purl.org/dc/elements/1.1/">
  <style
     id="style1">
    path {
      fill: #202020;
      stroke: #202020;
    }
    @media (prefers-color-scheme: dark) {
      path {
        stroke: #dfdfdf;
        fill: #dfdfdf;
      }
    }
  </style>
  <metadata
     id="metadata1">
    <rdf:RDF>
      <cc:Work>
        <dc:type
           rdf:resource="http://purl.org/dc/dcmitype/StillImage" />
        <dc:date>2023-11-26T19:19:51.988324</dc:date>
        <dc:format>image/svg+xml</dc:format>
        <dc:creator>
          <cc:Agent>
            <dc:title>Matplotlib v3.8.0, https://matplotlib.org/</dc:title>
          </cc:Agent>
        </dc:creator>
      </cc:Work>
    </rdf:RDF>
  </metadata>
  <defs
     id="defs2">
    <style
       type="text/css"
       id="style2">*{stroke-linejoin: round; stroke-linecap: butt}</style>
  </defs>
  <g
     id="figure_1"
     transform="translate(0,-0.79319617)">
    <g
       id="patch_1" />
    <g
       id="axes_1">
      <g
         id="text_1">
        <!-- HGQ -->
        <g
           transform="matrix(1.6,0,0,-1.6,51.3625,324.7675)"
           id="g5">
          <defs
             id="defs3">
            <path
               id="Cabin-Regular-48"
               d="m 512,0 v 4480 h 608 V 2630 h 2278 v 1850 h 608 V 0 H 3398 V 2054 H 1120 V 0 Z"
               transform="scale(0.015625)" />
            <path
               id="Cabin-Regular-47"
               d="m 2445,-90 q -621,0 -1119,286 -497,287 -787,812 -289,525 -289,1238 0,708 299,1229 299,522 822,808 523,287 1195,287 362,0 690,-76 328,-75 571,-180 l -57,-532 q -263,103 -558,170 -294,67 -626,67 -573,0 -943,-239 -369,-238 -549,-641 -179,-403 -179,-899 0,-512 182,-914 183,-401 560,-633 378,-232 961,-232 144,0 358,25 214,26 390,96 v 1114 h -704 v 550 H 3974 V 250 Q 3712,106 3321,8 2931,-90 2445,-90 Z"
               transform="scale(0.015625)" />
            <path
               id="Cabin-Regular-51"
               d="M 2822,1293 3168,1645 4576,262 4230,-90 Z M 2464,-90 q -640,0 -1139,286 -499,287 -784,810 -285,524 -285,1234 0,710 285,1233 285,524 784,810 499,287 1139,287 640,0 1139,-287 499,-286 784,-810 285,-523 285,-1233 0,-710 -285,-1234 Q 4102,483 3603,196 3104,-90 2464,-90 Z m 0,589 q 515,0 860,232 346,232 520,627 175,396 175,882 0,486 -175,881 -174,396 -520,628 -345,232 -860,232 -515,0 -861,-232 -345,-232 -520,-628 -174,-395 -174,-881 0,-486 174,-882 175,-395 520,-627 346,-232 861,-232 z"
               transform="scale(0.015625)" />
          </defs>
          <use
             xlink:href="#Cabin-Regular-48"
             id="use3" />
          <use
             xlink:href="#Cabin-Regular-47"
             x="70.600006"
             id="use4" />
          <use
             xlink:href="#Cabin-Regular-51"
             x="137.80002"
             id="use5" />
        </g>
      </g>
      <g
         id="line2d_1">
        <path
           d="m 25.11,152.46 -0.122696,-1.63966 -0.365391,-1.60362 -0.600052,-1.53229 -0.821517,-1.42729 -1.02492,-1.29089 -1.205785,-1.12612 -1.360137,-0.93658 -1.484581,-0.72645 -1.576382,-0.50034 -1.63352,-0.26323 -1.65474,-0.0203 -1.639574,0.223 -1.588355,0.46145 -1.502213,0.68974 -1.383037,0.90287 -1.23345,1.09614 -1.056743,1.26531 -0.856799,1.40667 -0.638014,1.51708 -0.405201,1.59414 -0.163479,1.63614 0.08184,1.64218 0.325357,1.6121 0.561721,1.54657 0.785734,1.44704 0.992469,1.31569 1.177381,1.15541 1.336405,0.96971 1.466042,0.76271 1.563444,0.53893 1.626467,0.30329 1.653728,0.061 1.644623,-0.18265 1.599358,-0.42227 1.518924,-0.65262 1.40509,-0.8686 1.260362,-1.06549 1.08792,-1.23896 0.891555,-1.38518 0.675587,-1.50093 0.444764,-1.5837 0.20416,-1.63163 L 25.11,152.46 v 0"
           clip-path="url(#p6d2e03f76d)"
           style="fill:none;stroke-width:6;stroke-linecap:square"
           id="path5" />
      </g>
      <g
         id="line2d_2">
        <path
           d="m 25.11,97.02 -0.122696,-1.639664 -0.365391,-1.603611 -0.600052,-1.532295 -0.821517,-1.427287 -1.02492,-1.290895 -1.205785,-1.126119 -1.360137,-0.936579 -1.484581,-0.726446 -1.576382,-0.50034 -1.63352,-0.263232 -1.65474,-0.02034 -1.639574,0.223008 -1.588355,0.461448 -1.502213,0.68974 -1.383037,0.902868 -1.23345,1.096142 -1.056743,1.265313 -0.856799,1.406662 -0.638014,1.51708 -0.405201,1.59414 -0.163479,1.636148 0.08184,1.642178 0.325357,1.612101 0.561721,1.54657 0.785734,1.44704 0.992469,1.31569 1.177381,1.15541 1.336405,0.96971 1.466042,0.76271 1.563444,0.53893 1.626467,0.30329 1.653728,0.061 1.644623,-0.18265 1.599358,-0.42227 1.518924,-0.65262 1.40509,-0.8686 1.260362,-1.06549 1.08792,-1.23896 0.891555,-1.38518 0.675587,-1.50093 0.444764,-1.583702 0.20416,-1.631629 L 25.11,97.02 v 0"
           clip-path="url(#p6d2e03f76d)"
           style="fill:none;stroke-width:4;stroke-linecap:square"
           id="path6" />
      </g>
      <g
         id="line2d_3">
        <path
           d="m 25.11,41.58 -0.122696,-1.639664 -0.365391,-1.603611 -0.600052,-1.532295 -0.821517,-1.427287 -1.02492,-1.290895 -1.205785,-1.126119 -1.360137,-0.936579 -1.484581,-0.726446 -1.576382,-0.50034 -1.63352,-0.263232 -1.65474,-0.02034 -1.639574,0.223008 -1.588355,0.461448 -1.502213,0.68974 -1.383037,0.902868 -1.23345,1.096142 -1.056743,1.265313 -0.856799,1.406662 -0.638014,1.51708 -0.405201,1.59414 -0.163479,1.636148 0.08184,1.642178 0.325357,1.612099 0.561721,1.546572 0.785734,1.44704 0.992469,1.315687 1.177381,1.155406 1.336405,0.969718 1.466042,0.762707 1.563444,0.538927 1.626467,0.303294 1.653728,0.06099 1.644623,-0.182647 1.599358,-0.422273 1.518924,-0.652614 1.40509,-0.868603 1.260362,-1.065494 1.08792,-1.238957 0.891555,-1.385176 0.675587,-1.500937 0.444764,-1.583695 0.20416,-1.631629 L 25.11,41.58 v 0"
           clip-path="url(#p6d2e03f76d)"
           style="fill:none;stroke-width:2;stroke-linecap:square"
           id="path7" />
      </g>
      <g
         id="line2d_4">
        <path
           d="m 129.735,152.46 -0.1227,-1.63966 -0.36539,-1.60362 -0.60005,-1.53229 -0.82152,-1.42729 -1.02492,-1.29089 -1.20578,-1.12612 -1.36014,-0.93658 -1.48458,-0.72645 -1.57638,-0.50034 -1.63352,-0.26323 -1.65474,-0.0203 -1.63957,0.223 -1.58836,0.46145 -1.50221,0.68974 -1.38304,0.90287 -1.23345,1.09614 -1.05674,1.26531 -0.8568,1.40667 -0.63802,1.51708 -0.4052,1.59414 -0.16348,1.63614 0.0818,1.64218 0.32536,1.6121 0.56172,1.54657 0.78574,1.44704 0.99247,1.31569 1.17738,1.15541 1.3364,0.96971 1.46604,0.76271 1.56345,0.53893 1.62646,0.30329 1.65373,0.061 1.64462,-0.18265 1.59936,-0.42227 1.51893,-0.65262 1.40509,-0.8686 1.26036,-1.06549 1.08792,-1.23896 0.89155,-1.38518 0.67559,-1.50093 0.44476,-1.5837 0.20417,-1.63163 0.0137,-0.54834 v 0"
           clip-path="url(#p6d2e03f76d)"
           style="fill:none;stroke-width:4;stroke-linecap:square"
           id="path8" />
      </g>
      <g
         id="line2d_5">
        <path
           d="m 129.735,97.02 -0.1227,-1.639664 -0.36539,-1.603611 -0.60005,-1.532295 -0.82152,-1.427287 -1.02492,-1.290895 -1.20578,-1.126119 -1.36014,-0.936579 -1.48458,-0.726446 -1.57638,-0.50034 -1.63352,-0.263232 -1.65474,-0.02034 -1.63957,0.223008 -1.58836,0.461448 -1.50221,0.68974 -1.38304,0.902868 -1.23345,1.096142 -1.05674,1.265313 -0.8568,1.406662 -0.63802,1.51708 -0.4052,1.59414 -0.16348,1.636148 0.0818,1.642178 0.32536,1.612101 0.56172,1.54657 0.78574,1.44704 0.99247,1.31569 1.17738,1.15541 1.3364,0.96971 1.46604,0.76271 1.56345,0.53893 1.62646,0.30329 1.65373,0.061 1.64462,-0.18265 1.59936,-0.42227 1.51893,-0.65262 1.40509,-0.8686 1.26036,-1.06549 1.08792,-1.23896 0.89155,-1.38518 0.67559,-1.50093 0.44476,-1.583702 0.20417,-1.631629 L 129.735,97.02 v 0"
           clip-path="url(#p6d2e03f76d)"
           style="fill:none;stroke-width:6;stroke-linecap:square"
           id="path9" />
      </g>
      <g
         id="line2d_6">
        <path
           d="m 234.36,180.18 -0.1227,-1.63966 -0.36539,-1.60362 -0.60005,-1.53229 -0.82152,-1.42729 -1.02492,-1.29089 -1.20578,-1.12612 -1.36014,-0.93658 -1.48458,-0.72645 -1.57638,-0.50034 -1.63352,-0.26323 -1.65474,-0.0203 -1.63958,0.223 -1.58835,0.46145 -1.50221,0.68974 -1.38304,0.90287 -1.23345,1.09614 -1.05674,1.26531 -0.8568,1.40667 -0.63802,1.51708 -0.4052,1.59414 -0.16348,1.63614 0.0818,1.64218 0.32536,1.6121 0.56172,1.54657 0.78574,1.44704 0.99246,1.31569 1.17739,1.15541 1.3364,0.96971 1.46604,0.76271 1.56345,0.53893 1.62646,0.30329 1.65373,0.061 1.64462,-0.18265 1.59936,-0.42227 1.51893,-0.65262 1.40509,-0.8686 1.26036,-1.06549 1.08792,-1.23896 0.89155,-1.38518 0.67559,-1.50093 0.44476,-1.5837 0.20417,-1.63163 0.0137,-0.54834 v 0"
           clip-path="url(#p6d2e03f76d)"
           style="fill:none;stroke-width:4;stroke-linecap:square"
           id="path10" />
      </g>
      <g
         id="line2d_7">
        <path
           d="m 234.36,124.74 -0.1227,-1.63966 -0.36539,-1.60362 -0.60005,-1.53229 -0.82152,-1.42729 -1.02492,-1.29089 -1.20578,-1.12612 -1.36014,-0.93658 -1.48458,-0.72645 -1.57638,-0.50034 -1.63352,-0.26323 -1.65474,-0.0203 -1.63958,0.223 -1.58835,0.46145 -1.50221,0.68974 -1.38304,0.90287 -1.23345,1.09614 -1.05674,1.26532 -0.8568,1.40666 -0.63802,1.51708 -0.4052,1.59414 -0.16348,1.63614 0.0818,1.64218 0.32536,1.6121 0.56172,1.54657 0.78574,1.44704 0.99246,1.31569 1.17739,1.15541 1.3364,0.96971 1.46604,0.76271 1.56345,0.53893 1.62646,0.30329 1.65373,0.061 1.64462,-0.18265 1.59936,-0.42227 1.51893,-0.65262 1.40509,-0.8686 1.26036,-1.06549 1.08792,-1.23896 0.89155,-1.38518 0.67559,-1.50093 0.44476,-1.5837 0.20417,-1.63163 0.0137,-0.54834 v 0"
           clip-path="url(#p6d2e03f76d)"
           style="fill:none;stroke-width:6;stroke-linecap:square"
           id="path11" />
      </g>
      <g
         id="line2d_8">
        <path
           d="m 234.36,13.86 -0.1227,-1.639664 -0.36539,-1.603611 -0.60005,-1.532295 -0.82152,-1.427287 -1.02492,-1.290895 -1.20578,-1.126119 -1.36014,-0.936579 -1.48458,-0.726446 -1.57638,-0.50034 -1.63352,-0.263232 -1.65474,-0.020336 -1.63958,0.223008 -1.58835,0.461448 -1.50221,0.68974 -1.38304,0.902868 -1.23345,1.096142 -1.05674,1.265313 -0.8568,1.406662 -0.63802,1.51708 -0.4052,1.59414 -0.16348,1.636148 0.0818,1.642178 0.32536,1.612099 0.56172,1.546572 0.78574,1.44704 0.99246,1.315687 1.17739,1.155406 1.3364,0.969718 1.46604,0.762707 1.56345,0.538927 1.62646,0.303294 1.65373,0.06099 1.64462,-0.182647 1.59936,-0.422273 1.51893,-0.652614 1.40509,-0.868603 1.26036,-1.065494 1.08792,-1.238957 0.89155,-1.385176 0.67559,-1.500937 0.44476,-1.583695 0.20417,-1.631629 L 234.36,13.86 v 0"
           clip-path="url(#p6d2e03f76d)"
           style="fill:none;stroke-width:4;stroke-linecap:square"
           id="path12" />
      </g>
      <g
         id="line2d_9">
        <path
           d="m 338.985,152.46 -0.1227,-1.63966 -0.36539,-1.60362 -0.60005,-1.53229 -0.82152,-1.42729 -1.02492,-1.29089 -1.20578,-1.12612 -1.36014,-0.93658 -1.48458,-0.72645 -1.57638,-0.50034 -1.63352,-0.26323 -1.65474,-0.0203 -1.63958,0.223 -1.58835,0.46145 -1.50221,0.68974 -1.38304,0.90287 -1.23345,1.09614 -1.05674,1.26531 -0.8568,1.40667 -0.63802,1.51708 -0.4052,1.59414 -0.16348,1.63614 0.0818,1.64218 0.32536,1.6121 0.56172,1.54657 0.78574,1.44704 0.99246,1.31569 1.17739,1.15541 1.3364,0.96971 1.46604,0.76271 1.56345,0.53893 1.62646,0.30329 1.65373,0.061 1.64462,-0.18265 1.59936,-0.42227 1.51893,-0.65262 1.40509,-0.8686 1.26036,-1.06549 1.08792,-1.23896 0.89155,-1.38518 0.67559,-1.50093 0.44476,-1.5837 0.20416,-1.63163 0.0137,-0.54834 v 0"
           clip-path="url(#p6d2e03f76d)"
           style="fill:none;stroke-width:2;stroke-linecap:square"
           id="path13" />
      </g>
      <g
         id="line2d_10">
        <path
           d="m 338.985,41.58 -0.1227,-1.639664 -0.36539,-1.603611 -0.60005,-1.532295 -0.82152,-1.427287 -1.02492,-1.290895 -1.20578,-1.126119 -1.36014,-0.936579 -1.48458,-0.726446 -1.57638,-0.50034 -1.63352,-0.263232 -1.65474,-0.02034 -1.63958,0.223008 -1.58835,0.461448 -1.50221,0.68974 -1.38304,0.902868 -1.23345,1.096142 -1.05674,1.265313 -0.8568,1.406662 -0.63802,1.51708 -0.4052,1.59414 -0.16348,1.636148 0.0818,1.642178 0.32536,1.612099 0.56172,1.546572 0.78574,1.44704 0.99246,1.315687 1.17739,1.155406 1.3364,0.969718 1.46604,0.762707 1.56345,0.538927 1.62646,0.303294 1.65373,0.06099 1.64462,-0.182647 1.59936,-0.422273 1.51893,-0.652614 1.40509,-0.868603 1.26036,-1.065494 1.08792,-1.238957 0.89155,-1.385176 0.67559,-1.500937 0.44476,-1.583695 0.20416,-1.631629 L 338.985,41.58 v 0"
           clip-path="url(#p6d2e03f76d)"
           style="fill:none;stroke-width:7;stroke-linecap:square"
           id="path14" />
      </g>
      <g
         id="line2d_11">
        <path
           d="m 443.61,152.46 -0.1227,-1.63966 -0.36539,-1.60362 -0.60005,-1.53229 -0.82152,-1.42729 -1.02492,-1.29089 -1.20578,-1.12612 -1.36014,-0.93658 -1.48458,-0.72645 -1.57638,-0.50034 -1.63352,-0.26323 -1.65474,-0.0203 -1.63958,0.223 -1.58835,0.46145 -1.50221,0.68974 -1.38304,0.90287 -1.23345,1.09614 -1.05674,1.26531 -0.8568,1.40667 -0.63802,1.51708 -0.4052,1.59414 -0.16348,1.63614 0.0818,1.64218 0.32536,1.6121 0.56172,1.54657 0.78574,1.44704 0.99246,1.31569 1.17739,1.15541 1.3364,0.96971 1.46604,0.76271 1.56345,0.53893 1.62646,0.30329 1.65373,0.061 1.64462,-0.18265 1.59936,-0.42227 1.51893,-0.65262 1.40509,-0.8686 1.26036,-1.06549 1.08792,-1.23896 0.89155,-1.38518 0.67559,-1.50093 0.44476,-1.5837 0.20416,-1.63163 0.0137,-0.54834 v 0"
           clip-path="url(#p6d2e03f76d)"
           style="fill:none;stroke-width:6;stroke-linecap:square"
           id="path15" />
      </g>
      <g
         id="line2d_12">
        <path
           d="m 443.61,97.02 -0.1227,-1.639664 -0.36539,-1.603611 -0.60005,-1.532295 -0.82152,-1.427287 -1.02492,-1.290895 -1.20578,-1.126119 -1.36014,-0.936579 -1.48458,-0.726446 -1.57638,-0.50034 -1.63352,-0.263232 -1.65474,-0.02034 -1.63958,0.223008 -1.58835,0.461448 -1.50221,0.68974 -1.38304,0.902868 -1.23345,1.096142 -1.05674,1.265313 -0.8568,1.406662 -0.63802,1.51708 -0.4052,1.59414 -0.16348,1.636148 0.0818,1.642178 0.32536,1.612101 0.56172,1.54657 0.78574,1.44704 0.99246,1.31569 1.17739,1.15541 1.3364,0.96971 1.46604,0.76271 1.56345,0.53893 1.62646,0.30329 1.65373,0.061 1.64462,-0.18265 1.59936,-0.42227 1.51893,-0.65262 1.40509,-0.8686 1.26036,-1.06549 1.08792,-1.23896 0.89155,-1.38518 0.67559,-1.50093 0.44476,-1.583702 0.20416,-1.631629 L 443.61,97.02 v 0"
           clip-path="url(#p6d2e03f76d)"
           style="fill:none;stroke-width:4;stroke-linecap:square"
           id="path16" />
      </g>
      <g
         id="line2d_13">
        <path
           d="m 443.61,41.58 -0.1227,-1.639664 -0.36539,-1.603611 -0.60005,-1.532295 -0.82152,-1.427287 -1.02492,-1.290895 -1.20578,-1.126119 -1.36014,-0.936579 -1.48458,-0.726446 -1.57638,-0.50034 -1.63352,-0.263232 -1.65474,-0.02034 -1.63958,0.223008 -1.58835,0.461448 -1.50221,0.68974 -1.38304,0.902868 -1.23345,1.096142 -1.05674,1.265313 -0.8568,1.406662 -0.63802,1.51708 -0.4052,1.59414 -0.16348,1.636148 0.0818,1.642178 0.32536,1.612099 0.56172,1.546572 0.78574,1.44704 0.99246,1.315687 1.17739,1.155406 1.3364,0.969718 1.46604,0.762707 1.56345,0.538927 1.62646,0.303294 1.65373,0.06099 1.64462,-0.182647 1.59936,-0.422273 1.51893,-0.652614 1.40509,-0.868603 1.26036,-1.065494 1.08792,-1.238957 0.89155,-1.385176 0.67559,-1.500937 0.44476,-1.583695 0.20416,-1.631629 L 443.61,41.58 v 0"
           clip-path="url(#p6d2e03f76d)"
           style="fill:none;stroke-width:2;stroke-linecap:square"
           id="path17" />
      </g>
      <g
         id="line2d_14">
        <path
           d="m 27.2025,152.46 h 78.12"
           clip-path="url(#p6d2e03f76d)"
           style="fill:none;stroke-width:6;stroke-linecap:square"
           id="path18" />
      </g>
      <g
         id="line2d_15">
        <path
           d="m 27.2025,97.02 h 78.12"
           clip-path="url(#p6d2e03f76d)"
           style="fill:none;stroke-width:6;stroke-linecap:square"
           id="path19" />
      </g>
      <g
         id="line2d_16">
        <path
           d="M 21.821307,49.921893 110.70369,144.11811"
           clip-path="url(#p6d2e03f76d)"
           style="fill:none;stroke-linecap:square"
           id="path20" />
      </g>
      <g
         id="line2d_17">
        <path
           d="m 131.38003,149.06736 79.01494,-20.93472"
           clip-path="url(#p6d2e03f76d)"
           style="fill:none;stroke-width:6;stroke-linecap:square"
           id="path21" />
      </g>
      <g
         id="line2d_18">
        <path
           d="M 125.48025,143.3124 216.29475,23.0076"
           clip-path="url(#p6d2e03f76d)"
           style="fill:none;stroke-linecap:square"
           id="path22" />
      </g>
      <g
         id="line2d_19">
        <path
           d="m 128.37881,104.81245 85.01738,67.5751"
           clip-path="url(#p6d2e03f76d)"
           style="fill:none;stroke-width:4;stroke-linecap:square"
           id="path23" />
      </g>
      <g
         id="line2d_20">
        <path
           d="m 131.04305,100.32336 79.6889,21.11328"
           clip-path="url(#p6d2e03f76d)"
           style="fill:none;stroke-width:5;stroke-linecap:square"
           id="path24" />
      </g>
      <g
         id="line2d_21">
        <path
           d="M 127.56182,89.876924 214.21318,21.003076"
           clip-path="url(#p6d2e03f76d)"
           style="fill:none;stroke-linecap:square"
           id="path25" />
      </g>
      <g
         id="line2d_22">
        <path
           d="M 230.3145,170.7552 320.7105,51.0048"
           clip-path="url(#p6d2e03f76d)"
           style="fill:none;stroke-width:2;stroke-linecap:square"
           id="path26" />
      </g>
      <g
         id="line2d_23">
        <path
           d="m 234.32016,127.68624 82.38468,21.82752"
           clip-path="url(#p6d2e03f76d)"
           style="fill:none;stroke-linecap:square"
           id="path27" />
      </g>
      <g
         id="line2d_24">
        <path
           d="M 233.27614,116.7311 317.74886,49.588903"
           clip-path="url(#p6d2e03f76d)"
           style="fill:none;stroke-width:5;stroke-linecap:square"
           id="path28" />
      </g>
      <g
         id="line2d_25">
        <path
           d="m 230.3145,23.2848 90.396,119.7504"
           clip-path="url(#p6d2e03f76d)"
           style="fill:none;stroke-width:2;stroke-linecap:square"
           id="path29" />
      </g>
      <g
         id="line2d_26">
        <path
           d="m 234.65713,16.895524 81.71074,21.648952"
           clip-path="url(#p6d2e03f76d)"
           style="fill:none;stroke-width:2;stroke-linecap:square"
           id="path30" />
      </g>
      <g
         id="line2d_27">
        <path
           d="m 339.33375,152.46 h 81.6075"
           clip-path="url(#p6d2e03f76d)"
           style="fill:none;stroke-linecap:square"
           id="path31" />
      </g>
      <g
         id="line2d_28">
        <path
           d="m 338.2875,146.916 83.7,-44.352"
           clip-path="url(#p6d2e03f76d)"
           style="fill:none;stroke-width:2;stroke-linecap:square"
           id="path32" />
      </g>
      <g
         id="line2d_29">
        <path
           d="m 336.6504,50.933032 86.97419,92.173938"
           clip-path="url(#p6d2e03f76d)"
           style="fill:none;stroke-width:5;stroke-linecap:square"
           id="path33" />
      </g>
      <g
         id="line2d_30">
        <path
           d="m 337.97978,46.960941 84.31544,44.678118"
           clip-path="url(#p6d2e03f76d)"
           style="fill:none;stroke-linecap:square"
           id="path34" />
      </g>
      <g
         id="line2d_31">
        <path
           d="m 340.03125,41.58 h 80.2125"
           clip-path="url(#p6d2e03f76d)"
           style="fill:none;stroke-width:3;stroke-linecap:square"
           id="path35" />
      </g>
    </g>
  </g>
  <defs
     id="defs35">
    <clipPath
       id="p6d2e03f76d">
      <rect
         x="0"
         y="0"
         width="446.39999"
         height="194.03999"
         id="rect35" />
    </clipPath>
  </defs>
</svg>
