<svg xmlns:xlink="http://www.w3.org/1999/xlink" width="486.873" height="493.118" viewBox="0 0 365.155 369.839" xmlns="http://www.w3.org/2000/svg"><style id="style1">path{fill:#202020;stroke:#202020}@media (prefers-color-scheme:dark){path{stroke:#dfdfdf;fill:#dfdfdf}}*{stroke-linejoin:round;stroke-linecap:butt}</style><g id="figure_1"><g id="axes_1"><g transform="matrix(1.7 0 0 -1.7 0 328.693)" id="text_1"><defs><path id="Cabin-Regular-48" d="M512 0v4480h608V2630h2278v1850h608V0h-608v2054H1120V0H512z" transform="scale(.01563)"/><path id="Cabin-Regular-47" d="M2445-90q-621 0-1119 286-497 287-787 812-289 525-289 1238 0 708 299 1229 299 522 822 808 523 287 1195 287 362 0 690-76 328-75 571-180l-57-532q-263 103-558 170-294 67-626 67-573 0-943-239-369-238-549-641-179-403-179-899 0-512 182-914 183-401 560-633 378-232 961-232 144 0 358 25 214 26 390 96v1114h-704v550h1312V250Q3712 106 3321 8q-390-98-876-98z" transform="scale(.01563)"/><path id="Cabin-Regular-51" d="m2822 1293 346 352L4576 262 4230-90 2822 1293zM2464-90q-640 0-1139 286-499 287-784 810-285 524-285 1234t285 1233q285 524 784 810 499 287 1139 287t1139-287q499-286 784-810 285-523 285-1233t-285-1234q-285-523-784-810Q3104-90 2464-90zm0 589q515 0 860 232 346 232 520 627 175 396 175 882t-175 881q-174 396-520 628-345 232-860 232t-861-232q-345-232-520-628-174-395-174-881t174-882q175-395 520-627 346-232 861-232z" transform="scale(.01563)"/></defs><use xlink:href="#Cabin-Regular-48"/><use xlink:href="#Cabin-Regular-47" x="70.6"/><use xlink:href="#Cabin-Regular-51" x="137.8"/></g><path d="M43.077 157.664a17.678 17.678 0 1 0 0-35.357 17.678 17.678 0 0 0 0 35.357z" clip-path="url(#pe6c2a07edf)" style="fill:none;stroke-width:24" id="PathCollection_1"/><path d="M43.077 88.364a17.678 17.678 0 1 0 0-35.357 17.678 17.678 0 0 0 0 35.357z" clip-path="url(#pe6c2a07edf)" style="fill:none;stroke-width:16" id="PathCollection_2"/><path d="M182.577 192.314a17.678 17.678 0 1 0 0-35.357 17.678 17.678 0 0 0 0 35.357z" clip-path="url(#pe6c2a07edf)" style="fill:none;stroke-width:8" id="PathCollection_3"/><path d="M182.577 123.014a17.678 17.678 0 1 0 0-35.357 17.678 17.678 0 0 0 0 35.357z" clip-path="url(#pe6c2a07edf)" style="fill:none;stroke-width:4" id="PathCollection_4"/><path d="M182.577 53.714a17.678 17.678 0 1 0 0-35.357 17.678 17.678 0 0 0 0 35.357z" clip-path="url(#pe6c2a07edf)" style="fill:none;stroke-width:16" id="PathCollection_5"/><path d="M322.077 157.664a17.678 17.678 0 1 0 0-35.357 17.678 17.678 0 0 0 0 35.357z" clip-path="url(#pe6c2a07edf)" style="fill:none;stroke-width:8" id="PathCollection_6"/><path d="M322.077 88.364a17.678 17.678 0 1 0 0-35.357 17.678 17.678 0 0 0 0 35.357z" clip-path="url(#pe6c2a07edf)" style="fill:none;stroke-width:16" id="PathCollection_7"/><path d="m63.242 144.995 99.17 24.632" clip-path="url(#pe6c2a07edf)" style="fill:none;stroke-width:9.6;stroke-linecap:square" id="line2d_1"/><path d="M58.367 128.593 167.288 47.43" clip-path="url(#pe6c2a07edf)" style="fill:none;stroke-width:4.8;stroke-linecap:square" id="line2d_2"/><path d="m61.618 75.291 102.418 25.44" clip-path="url(#pe6c2a07edf)" style="fill:none;stroke-width:4.8;stroke-linecap:square" id="line2d_3"/><path d="m63.242 65.677 99.17-24.632" clip-path="url(#pe6c2a07edf)" style="fill:none;stroke-width:9.6;stroke-linecap:square" id="line2d_4"/><path d="M197.867 163.243 306.788 82.08" clip-path="url(#pe6c2a07edf)" style="fill:none;stroke-width:4.8;stroke-linecap:square" id="line2d_5"/><path d="m201.118 109.941 102.418 25.44" clip-path="url(#pe6c2a07edf)" style="fill:none;stroke-width:4.8;stroke-linecap:square" id="line2d_6"/><path d="m199.206 48.427 106.243 79.168" clip-path="url(#pe6c2a07edf)" style="fill:none;stroke-width:9.6;stroke-linecap:square" id="line2d_7"/><path d="m201.118 40.641 102.418 25.44" clip-path="url(#pe6c2a07edf)" style="fill:none;stroke-width:4.8;stroke-linecap:square" id="line2d_8"/></g></g><defs><clipPath id="pe6c2a07edf"><path d="M1.227 0h362.7v210.672H1.227z"/></clipPath></defs></svg>